<svg width="60" height="34" viewBox="0 0 60 34" fill="none" xmlns="http://www.w3.org/2000/svg">
<rect x="0.5" y="0.5" width="59" height="33" rx="1.76763" fill="white" stroke="#DADCE3"/>
<g clip-path="url(#clip0)">
<path fill-rule="evenodd" clip-rule="evenodd" d="M29.7793 7.45771C29.6696 7.54595 29.5622 7.63685 29.4571 7.73041C27.6626 9.32601 26.5266 11.6752 26.5266 14.297C26.5266 16.9189 27.6626 19.2678 29.4571 20.8637C29.5622 20.9572 29.6696 21.0479 29.7793 21.1361C29.8891 21.0479 29.9965 20.9572 30.1015 20.8637C31.8963 19.2678 33.032 16.9189 33.032 14.297C33.032 11.6752 31.8963 9.32601 30.1015 7.73041C29.9965 7.63685 29.8891 7.54595 29.7793 7.45771ZM35.0425 5.59375C33.2991 5.59375 31.6782 6.12949 30.3282 7.04841C30.3972 7.10619 30.4672 7.163 30.534 7.22248C32.5405 9.00641 33.6908 11.585 33.6908 14.297C33.6908 17.0091 32.5405 19.5877 30.5342 21.3714C30.4677 21.4306 30.3972 21.4879 30.3282 21.5457C31.678 22.4644 33.2991 23.0003 35.0425 23.0003C39.7458 23.0003 43.5587 19.1037 43.5587 14.297C43.5587 9.49017 39.7458 5.59375 35.0425 5.59375ZM29.0247 21.3714C29.0912 21.4306 29.1614 21.4877 29.2305 21.5457C27.8807 22.4646 26.2598 23.0003 24.5161 23.0003C19.8126 23.0003 16 19.1037 16 14.297C16 9.49041 19.8126 5.59375 24.5161 5.59375C26.2596 5.59375 27.8807 6.12949 29.2305 7.04841C29.1614 7.10619 29.0917 7.163 29.0247 7.22248C27.0185 9.00641 25.8678 11.585 25.8678 14.297C25.8678 17.0093 27.0185 19.5877 29.0247 21.3714ZM43.2918 19.6902V19.3522H43.2057L43.1064 19.5848L43.007 19.3522H42.9207V19.6902H42.9817V19.4354L43.0747 19.6549H43.1378L43.231 19.4349V19.6902H43.2918ZM42.7454 19.6902V19.41H42.8559V19.3529H42.5743V19.41H42.6848V19.6902H42.7454ZM43.0115 27.204V27.2609H43.0626C43.0744 27.2609 43.0839 27.2584 43.0908 27.2538C43.0979 27.2492 43.1012 27.242 43.1012 27.2321C43.1012 27.2227 43.0979 27.2156 43.0908 27.211C43.0839 27.2065 43.0744 27.204 43.0626 27.204H43.0115ZM43.0633 27.1641C43.09 27.1641 43.1106 27.1702 43.1253 27.1823C43.1397 27.1946 43.1471 27.211 43.1471 27.2321C43.1471 27.2497 43.1411 27.2645 43.1295 27.2758C43.118 27.2872 43.1016 27.2942 43.0803 27.2969L43.1487 27.3774H43.0952L43.0319 27.2974H43.0115V27.3774H42.9668V27.1641H43.0633ZM43.0501 27.4506C43.0742 27.4506 43.0969 27.4458 43.1177 27.4366C43.1388 27.4272 43.157 27.4144 43.1728 27.3982C43.1887 27.3822 43.201 27.3631 43.21 27.3414C43.219 27.3196 43.2235 27.2964 43.2235 27.2715C43.2235 27.2468 43.219 27.2236 43.21 27.2019C43.201 27.1801 43.1887 27.161 43.1728 27.1448C43.157 27.1288 43.1388 27.116 43.1177 27.1068C43.0969 27.0977 43.0742 27.0931 43.0501 27.0931C43.0255 27.0931 43.0023 27.0977 42.981 27.1068C42.9595 27.116 42.9408 27.1288 42.9249 27.1448C42.9093 27.161 42.8968 27.1801 42.8878 27.2019C42.8788 27.2236 42.8743 27.2468 42.8743 27.2715C42.8743 27.2964 42.8788 27.3196 42.8878 27.3414C42.8968 27.3631 42.9093 27.3822 42.9249 27.3982C42.9408 27.4144 42.9595 27.4272 42.981 27.4366C43.0023 27.4458 43.0255 27.4506 43.0501 27.4506ZM43.0501 27.0418C43.0815 27.0418 43.1113 27.0479 43.139 27.0599C43.1667 27.0718 43.1911 27.0882 43.2116 27.1093C43.2325 27.1301 43.2488 27.1545 43.2608 27.1823C43.2727 27.2103 43.2786 27.2401 43.2786 27.2715C43.2786 27.3032 43.2727 27.3327 43.2608 27.3605C43.2488 27.3883 43.2325 27.4127 43.2116 27.4335C43.1911 27.4543 43.1667 27.4707 43.139 27.483C43.1113 27.4951 43.0815 27.5012 43.0501 27.5012C43.0177 27.5012 42.9876 27.4951 42.9595 27.483C42.9313 27.4707 42.9069 27.4543 42.8864 27.4335C42.8658 27.4127 42.8497 27.3883 42.8376 27.3605C42.8258 27.3327 42.8199 27.3032 42.8199 27.2715C42.8199 27.2401 42.8258 27.2103 42.8376 27.1823C42.8497 27.1545 42.8658 27.1301 42.8864 27.1093C42.9069 27.0882 42.9313 27.0718 42.9595 27.0599C42.9876 27.0479 43.0177 27.0418 43.0501 27.0418ZM21.9549 26.2213C21.9549 25.8151 22.2151 25.4818 22.6407 25.4818C23.0476 25.4818 23.322 25.8006 23.322 26.2213C23.322 26.6419 23.0476 26.9611 22.6407 26.9611C22.2151 26.9611 21.9549 26.6274 21.9549 26.2213ZM23.7856 26.2213V25.0659H23.2936V25.3464C23.1375 25.1385 22.9009 25.0079 22.5792 25.0079C21.9454 25.0079 21.4487 25.5156 21.4487 26.2213C21.4487 26.9272 21.9454 27.4349 22.5792 27.4349C22.9009 27.4349 23.1375 27.3044 23.2936 27.0965V27.3769H23.7856V26.2213ZM40.3992 26.2213C40.3992 25.8151 40.6594 25.4818 41.0852 25.4818C41.4918 25.4818 41.7663 25.8006 41.7663 26.2213C41.7663 26.6419 41.4918 26.9611 41.0852 26.9611C40.6594 26.9611 40.3992 26.6274 40.3992 26.2213ZM42.2299 26.2213V24.1376H41.7379V25.3464C41.5817 25.1385 41.3452 25.0079 41.0237 25.0079C40.3897 25.0079 39.8929 25.5156 39.8929 26.2213C39.8929 26.9272 40.3897 27.4349 41.0237 27.4349C41.3452 27.4349 41.5817 27.3044 41.7379 27.0965V27.3769H42.2299V26.2213ZM29.8879 25.4576C30.2049 25.4576 30.4083 25.6604 30.4604 26.0182H29.2873C29.3391 25.6846 29.5378 25.4576 29.8879 25.4576ZM29.8974 25.0079C29.235 25.0079 28.7716 25.5011 28.7716 26.2213C28.7716 26.9562 29.2539 27.4349 29.9305 27.4349C30.2711 27.4349 30.5834 27.3476 30.8578 27.111L30.6165 26.7387C30.4273 26.8934 30.186 26.9804 29.9589 26.9804C29.6419 26.9804 29.3533 26.8305 29.2823 26.4147H30.9619C30.9666 26.3518 30.9711 26.289 30.9711 26.2213C30.9666 25.5011 30.5314 25.0079 29.8974 25.0079ZM35.8343 26.2213C35.8343 25.8151 36.0943 25.4818 36.5201 25.4818C36.927 25.4818 37.2014 25.8006 37.2014 26.2213C37.2014 26.6419 36.927 26.9611 36.5201 26.9611C36.0943 26.9611 35.8343 26.6274 35.8343 26.2213ZM37.665 26.2213V25.0659H37.173V25.3464C37.0169 25.1385 36.7803 25.0079 36.4586 25.0079C35.8248 25.0079 35.3281 25.5156 35.3281 26.2213C35.3281 26.9272 35.8248 27.4349 36.4586 27.4349C36.7803 27.4349 37.0169 27.3044 37.173 27.0965V27.3769H37.665V26.2213ZM33.0573 26.2213C33.0573 26.9224 33.5352 27.4349 34.2638 27.4349C34.6044 27.4349 34.8313 27.3576 35.0773 27.1593L34.8408 26.7532C34.6562 26.8885 34.4623 26.9611 34.2496 26.9611C33.8569 26.9562 33.5683 26.6661 33.5683 26.2213C33.5683 25.7767 33.8569 25.4866 34.2496 25.4818C34.4623 25.4818 34.6562 25.554 34.8408 25.6897L35.0773 25.2835C34.8313 25.0853 34.6044 25.0079 34.2638 25.0079C33.5352 25.0079 33.0573 25.5204 33.0573 26.2213ZM39.3964 25.0079C39.1125 25.0079 38.928 25.1433 38.8003 25.3464V25.0659H38.313V27.3769H38.805V26.0811C38.805 25.6993 38.9659 25.4866 39.2876 25.4866C39.3869 25.4866 39.491 25.5011 39.5951 25.5446L39.7465 25.0708C39.6375 25.0272 39.4955 25.0079 39.3964 25.0079ZM26.217 25.2497C25.9804 25.0901 25.654 25.0079 25.2946 25.0079C24.7222 25.0079 24.3531 25.2883 24.3531 25.7474C24.3531 26.1246 24.6275 26.3567 25.1338 26.4292L25.3656 26.463C25.6351 26.5017 25.763 26.5743 25.763 26.7048C25.763 26.8837 25.583 26.9852 25.2473 26.9852C24.9067 26.9852 24.6607 26.874 24.4951 26.7435L24.2632 27.1351C24.5329 27.338 24.8736 27.4349 25.2426 27.4349C25.8953 27.4349 26.2738 27.1206 26.2738 26.6806C26.2738 26.2745 25.9757 26.0617 25.4839 25.9892L25.2521 25.9554C25.0392 25.9263 24.8688 25.8831 24.8688 25.7283C24.8688 25.5591 25.0297 25.4576 25.2994 25.4576C25.588 25.4576 25.8669 25.5688 26.0041 25.6558L26.217 25.2497ZM32.5608 25.0079C32.2769 25.0079 32.0924 25.1433 31.9647 25.3464V25.0659H31.4774V27.3769H31.9694V26.0811C31.9694 25.6993 32.1303 25.4866 32.452 25.4866C32.5513 25.4866 32.6554 25.5011 32.7593 25.5446L32.9107 25.0708C32.8019 25.0272 32.6599 25.0079 32.5608 25.0079ZM28.3647 25.0659H27.5604V24.3648H27.0639V25.0659H26.6049V25.5253H27.0639V26.5791C27.0639 27.1158 27.2673 27.4349 27.849 27.4349C28.0619 27.4349 28.3079 27.367 28.4641 27.256L28.3221 26.8257C28.1755 26.9127 28.0146 26.9562 27.8869 26.9562C27.6408 26.9562 27.5604 26.8015 27.5604 26.5694V25.5253H28.3647V25.0659ZM21.0134 27.3769V25.9263C21.0134 25.3802 20.6728 25.0127 20.1242 25.0079C19.8356 25.0031 19.5375 25.0949 19.3293 25.4189C19.1732 25.1626 18.9272 25.0079 18.582 25.0079C18.3408 25.0079 18.1042 25.0804 17.9197 25.3512V25.0659H17.4276V27.3769H17.9244V26.0956C17.9244 25.6943 18.142 25.4818 18.478 25.4818C18.8042 25.4818 18.9698 25.6993 18.9698 26.0907V27.3769H19.4665V26.0956C19.4665 25.6943 19.6936 25.4818 20.0201 25.4818C20.356 25.4818 20.5166 25.6993 20.5166 26.0907V27.3769H21.0134Z" fill="#404553"/>
</g>
<defs>
<clipPath id="clip0">
<rect width="27.6774" height="22" fill="white" transform="translate(16 5.59375)"/>
</clipPath>
</defs>
</svg>
