<svg width="60" height="34" viewBox="0 0 60 34" fill="none" xmlns="http://www.w3.org/2000/svg">
<rect x="0.5" y="0.5" width="59" height="33" rx="1.76763" fill="white" stroke="#DADCE3"/>
<path d="M25.0038 23.0808L27.0823 11.3895H30.3298L28.3163 23.0808H25.0038Z" fill="#404553"/>
<path d="M25.0038 23.0808L27.6668 11.3895H30.3298L28.3163 23.0808H25.0038Z" fill="#404553"/>
<path d="M40.0726 11.5196C39.4231 11.2598 38.3839 11 37.0848 11C33.8373 11 31.499 12.6238 31.499 14.9621C31.499 16.7157 33.1228 17.6251 34.4218 18.2096C35.7209 18.7942 36.1106 19.1839 36.1106 19.7035C36.1106 20.4829 35.0713 20.8727 34.162 20.8727C32.863 20.8727 32.1485 20.6778 31.0443 20.2231L30.5897 20.0283L30.135 22.6913C30.9144 23.0161 32.3434 23.3408 33.8373 23.3408C37.2797 23.3408 39.553 21.717 39.553 19.2489C39.553 17.8849 38.7086 16.8456 36.7601 16.0013C35.5909 15.4167 34.8765 15.092 34.8765 14.5074C34.8765 13.9878 35.461 13.4682 36.7601 13.4682C37.8643 13.4682 38.6437 13.663 39.2282 13.9228L39.553 14.0527L40.0726 11.5196Z" fill="#404553"/>
<path d="M40.0726 11.5196C39.4231 11.2598 38.3839 11 37.0848 11C33.8373 11 32.0836 12.6238 32.0836 14.9621C32.0836 16.7157 33.1228 17.6251 34.4218 18.2096C35.7209 18.7942 36.1106 19.1839 36.1106 19.7035C36.1106 20.4829 35.0713 20.8727 34.162 20.8727C32.863 20.8727 32.1485 20.6778 31.0443 20.2231L30.5897 20.0283L30.135 22.6913C30.9144 23.0161 32.3434 23.3408 33.8373 23.3408C37.2797 23.3408 39.553 21.717 39.553 19.2489C39.553 17.8849 38.7086 16.8456 36.7601 16.0013C35.5909 15.4167 34.8765 15.092 34.8765 14.5074C34.8765 13.9878 35.461 13.4682 36.7601 13.4682C37.8643 13.4682 38.6437 13.663 39.2282 13.9228L39.553 14.0527L40.0726 11.5196Z" fill="#404553"/>
<path fill-rule="evenodd" clip-rule="evenodd" d="M43.9697 12.2339C44.2945 11.4544 44.879 11.3895 45.6584 11.3895H48.1916L50.9195 23.0808H47.8018L47.4121 21.1322H43.2552L42.6057 23.0808H39.0983L43.9697 12.2339ZM45.4636 15.7413C45.4636 15.7413 44.3594 18.5992 44.1646 19.1837V19.2487H46.8925C46.7626 18.5992 46.1131 15.6763 46.1131 15.6763L45.9183 14.5722C45.7234 15.0268 45.4636 15.7413 45.4636 15.7413Z" fill="#404553"/>
<path fill-rule="evenodd" clip-rule="evenodd" d="M44.7491 12.2339C45.0739 11.4544 45.6584 11.3895 46.4379 11.3895H48.1916L50.9195 23.0808H47.8018L47.4121 21.1322H43.2552L42.6057 23.0808H39.0983L44.7491 12.2339ZM45.4636 15.7413C45.4636 15.7413 44.4244 18.5342 44.1646 19.1837V19.2487H46.8925C46.7626 18.5992 46.1131 15.6763 46.1131 15.6763L45.9183 14.5722C45.7234 15.0268 45.4636 15.7413 45.4636 15.7413Z" fill="#404553"/>
<path d="M19.0283 19.574L18.7035 17.8852C18.1189 15.9367 16.2353 13.7933 14.1569 12.754L17.0797 23.1463H20.5871L25.8482 11.455H22.3408L19.0283 19.574Z" fill="#404553"/>
<path d="M19.0283 19.574L18.7035 17.8852C18.1189 15.9367 16.2353 13.7933 14.1569 12.754L17.0797 23.1463H20.5871L25.8482 11.455H22.9903L19.0283 19.574Z" fill="#404553"/>
<path d="M10 11.3895L10.5846 11.5194C14.7415 12.4937 17.5993 14.9618 18.7035 17.8847L17.5344 12.3638C17.3395 11.5844 16.755 11.3895 16.0405 11.3895H10Z" fill="#404553"/>
<path d="M10 11.3895C14.1569 12.3638 17.5993 14.8969 18.7035 17.8197L17.5993 13.2081C17.4045 12.4287 16.755 11.9741 16.0405 11.9741L10 11.3895Z" fill="#404553"/>
<path d="M10 11.3895C14.1569 12.3638 17.5993 14.8969 18.7035 17.8197L17.9241 15.2866C17.7292 14.5072 17.4694 13.7278 16.5601 13.403L10 11.3895Z" fill="#404553"/>
<path d="M22.2758 19.1842L20.0675 16.9758L19.0283 19.444L18.7684 17.8202C18.1839 15.8716 16.3003 13.7282 14.2218 12.689L17.1447 23.0813H20.652L22.2758 19.1842Z" fill="#404553"/>
<path d="M28.3163 23.081L25.5234 20.2232L25.0038 23.081H28.3163Z" fill="#404553"/>
<path d="M35.7858 19.0542C36.0456 19.3141 36.1755 19.5089 36.1106 19.7687C36.1106 20.5481 35.0713 20.9378 34.162 20.9378C32.863 20.9378 32.1485 20.743 31.0443 20.2883L30.5897 20.0935L30.135 22.7565C30.9144 23.0812 32.3434 23.406 33.8373 23.406C35.9157 23.406 37.6044 22.8214 38.5787 21.7822L35.7858 19.0542Z" fill="#404553"/>
<path d="M39.5529 23.081H42.6057L43.2552 21.1325H47.4121L47.8018 23.081H50.9195L49.8153 18.3396L45.9182 14.5724L46.1131 15.6116C46.1131 15.6116 46.7626 18.5344 46.8925 19.1839H44.1645C44.4243 18.5344 45.4635 15.7415 45.4635 15.7415C45.4635 15.7415 45.7234 15.027 45.9182 14.5724" fill="#404553"/>
</svg>
