<svg width="60" height="34" viewBox="0 0 60 34" fill="none" xmlns="http://www.w3.org/2000/svg">
<rect x="0.5" y="0.5" width="59" height="33" rx="1.76763" fill="white" stroke="#DADCE3"/>
<path d="M39.7392 10.8586L38.9301 12.7579H40.5568L39.7392 10.8586Z" fill="#404553"/>
<path d="M11.7706 10.8586L10.9705 12.7579H12.5771L11.7706 10.8586Z" fill="#404553"/>
<path d="M30.3389 11.1277C30.1993 11.0513 29.9844 11.0415 29.7806 11.0415H28.3292V12.099H29.7612C29.9881 12.099 30.1792 12.0955 30.3436 12.0014C30.4951 11.9241 30.5861 11.7563 30.5861 11.5485C30.5861 11.3443 30.4915 11.1969 30.3389 11.1277Z" fill="#404553"/>
<path d="M35.3874 19.3232C35.2441 19.2406 35.0327 19.237 34.8252 19.237H33.3739V20.307H34.8058C35.0355 20.307 35.2312 20.2999 35.39 20.2102C35.5425 20.1197 35.6335 19.9572 35.6335 19.7521C35.6307 19.5469 35.5397 19.3995 35.3874 19.3232Z" fill="#404553"/>
<path d="M29.6509 19.2353H28.115V20.4491H29.6363C30.089 20.4491 30.3711 20.2324 30.3711 19.8213C30.3702 19.4022 30.0771 19.2353 29.6509 19.2353Z" fill="#404553"/>
<path d="M51.4122 19.9509C51.4038 19.943 51.3947 19.9341 51.3863 19.9279C51.6096 19.7876 51.7584 19.5443 51.7584 19.2672V18.2524C51.7584 17.8164 51.3937 17.4648 50.9437 17.4648H48.583C47.8473 17.4648 47.2924 17.6743 46.8882 17.9904C46.7753 17.685 46.485 17.4648 46.1295 17.4648H43.7689C43.1195 17.4648 42.6079 17.6201 42.2184 17.8759C42.077 17.6317 41.8225 17.4648 41.5176 17.4648H37.5862C37.2692 17.4648 37.002 17.6432 36.8669 17.8981C36.8109 17.8599 36.7697 17.8155 36.7109 17.7817C36.1405 17.487 35.5342 17.4648 34.9095 17.4648H32.188C31.871 17.4648 31.6028 17.645 31.4687 17.9016C31.0544 17.6415 30.4749 17.4648 29.6509 17.4648H25.8867C25.6598 17.4648 25.4439 17.5536 25.2888 17.7152L24.3969 18.6448L23.5408 17.7258C23.3874 17.5562 23.1678 17.4639 22.9355 17.4639H18.1976C17.7475 17.4639 17.3838 17.8164 17.3838 18.2515V23.0169C17.3838 23.4529 17.7484 23.8045 18.1976 23.8045H22.8647C23.0916 23.8045 23.3075 23.7131 23.4617 23.5515L24.3611 22.6112L25.2144 23.539C25.3687 23.7078 25.5909 23.8027 25.8234 23.8027H28.1133C28.5643 23.8027 28.928 23.4503 28.928 23.0169V22.2036H29.5829C30.3793 22.2036 30.9552 22.0455 31.3741 21.805V23.0169C31.3741 23.4512 31.7387 23.8027 32.1888 23.8027H33.3729C33.8239 23.8027 34.1876 23.4503 34.1876 23.0169V22.0615H34.6313C34.7397 22.0615 34.8159 22.0652 34.8709 22.0687C34.8746 22.1539 34.8746 22.256 34.8729 22.3234V23.0169C34.8729 23.4512 35.2394 23.8027 35.6876 23.8027H36.8697C37.002 23.8027 37.1214 23.7681 37.2298 23.714C37.3401 23.7663 37.4586 23.8027 37.589 23.8027H41.5212C41.6488 23.8027 41.7674 23.7681 41.8749 23.7175C41.9824 23.7681 42.0981 23.8027 42.2285 23.8027H44.5231C45.2533 23.8027 45.8485 23.6297 46.2939 23.3241C46.4161 23.6047 46.7046 23.8027 47.0416 23.8027H49.3362C51.0052 23.8027 52 22.9459 52 21.5119C52 20.8478 51.8145 20.3532 51.4122 19.9509ZM29.5839 21.416H28.1142V23.0151H25.8243L24.373 21.4382L22.8647 23.0151H18.1976V18.2488H22.9355L24.3868 19.8115L25.8858 18.2488H29.6501C30.5842 18.2488 31.6359 18.5019 31.6359 19.8213C31.6359 21.1434 30.6145 21.4187 29.5839 21.416ZM36.0991 20.8025C36.3599 20.8948 36.574 21.0626 36.6732 21.2029C36.8413 21.4356 36.8633 21.6522 36.8688 22.0722V23.0169H35.6867V22.4202C35.6867 22.1344 35.7152 21.7091 35.4947 21.4871C35.3256 21.3175 35.064 21.2775 34.6322 21.2775H33.3738V23.0169H32.1897V18.2515H34.9114C35.5066 18.2515 35.9401 18.2754 36.3287 18.4752C36.6999 18.6919 36.9341 18.9902 36.9341 19.5327C36.9341 20.2946 36.4077 20.6826 36.0991 20.8025ZM41.5193 19.2362H38.7601V20.1037H41.4514V21.0768H38.7601V22.0234L41.5193 22.0286V23.0169H37.5881V18.2515H41.5193V19.2362ZM44.524 23.0116H42.2295V21.9879H44.5138C44.7362 21.9879 44.895 21.9612 44.9943 21.8698C45.0751 21.7969 45.132 21.6878 45.132 21.5581C45.132 21.4196 45.0715 21.3104 44.9887 21.2438C44.8969 21.171 44.7756 21.1381 44.569 21.1381C43.4685 21.1035 42.088 21.1709 42.088 19.6642C42.088 18.9707 42.5362 18.2452 43.7726 18.2452H46.1332V19.2593H43.9719C43.756 19.2593 43.6174 19.2681 43.4998 19.3463C43.3703 19.4244 43.3216 19.539 43.3216 19.6899C43.3216 19.8701 43.4309 19.99 43.5788 20.0451C43.7047 20.0868 43.8368 20.0992 44.038 20.0992L44.6709 20.117C45.3094 20.1339 45.7494 20.2404 46.0147 20.5006C46.2463 20.7306 46.3684 21.0218 46.3684 21.511C46.3684 22.5383 45.708 23.0169 44.524 23.0116ZM49.338 23.0116H47.0435V21.9879H49.3289C49.5511 21.9879 49.7101 21.9612 49.8084 21.8698C49.8892 21.7969 49.9461 21.6878 49.9461 21.5581C49.9461 21.4196 49.8855 21.3104 49.8028 21.2438C49.7118 21.171 49.5907 21.1381 49.383 21.1381C48.2817 21.1035 46.902 21.1709 46.902 19.6642C46.902 18.9707 47.3504 18.2452 48.5866 18.2452H50.9474V19.2593H48.787C48.5702 19.2593 48.4306 19.2681 48.3138 19.3463C48.1843 19.4244 48.1367 19.539 48.1367 19.6899C48.1367 19.8701 48.2468 19.99 48.3929 20.0451C48.5196 20.0868 48.651 20.0992 48.8521 20.0992L49.485 20.117C50.1243 20.1339 50.5652 20.2404 50.8306 20.5006C51.0603 20.7306 51.1842 21.0218 51.1842 21.511C51.1842 22.5383 50.522 23.0169 49.338 23.0116Z" fill="#404553"/>
<path d="M47.7141 9.26213H46.5081C46.0571 9.26213 45.6933 9.61463 45.6933 10.0488V10.5407L45.134 9.64305C44.9851 9.40774 44.7215 9.26301 44.4376 9.26301H42.6419C42.1918 9.26301 41.8281 9.61552 41.8281 10.0497V10.7183L41.3954 9.73982C41.2678 9.45126 40.9739 9.26301 40.6486 9.26301H38.8832C38.7041 9.26301 38.5332 9.31984 38.3973 9.41928C38.2623 9.32074 38.0923 9.26301 37.9096 9.26301H36.7715C35.8033 9.26301 35.0868 9.48943 34.5596 9.93162C34.499 9.55604 34.1766 9.26301 33.7707 9.26301H32.5674C32.2459 9.26301 31.9768 9.44681 31.8426 9.70609C31.7921 9.67057 31.7536 9.62795 31.6965 9.59599C31.1436 9.28699 30.5622 9.26301 29.8613 9.26301H27.1516C26.9991 9.26301 26.8659 9.31452 26.7428 9.38466C26.6226 9.31452 26.4875 9.26301 26.3349 9.26301H22.4C22.2337 9.26301 22.0895 9.32251 21.9609 9.40419C21.8314 9.32251 21.6872 9.26301 21.5219 9.26301H19.558C19.2329 9.26301 18.938 9.45215 18.8103 9.74339L18.1104 11.3381L17.3397 9.7203C17.2056 9.44149 16.9163 9.26301 16.6003 9.26301H14.6769C14.2268 9.26301 13.8631 9.61552 13.8631 10.0497V10.7343L13.4212 9.73805C13.2926 9.44948 12.9987 9.26213 12.6726 9.26213H10.9237C10.5976 9.26213 10.3037 9.45036 10.1751 9.73894L8.06614 14.5044C7.95775 14.7486 7.98439 15.0256 8.13411 15.2476C8.28475 15.4678 8.54011 15.601 8.81383 15.601H10.0943C10.4213 15.601 10.718 15.4092 10.8438 15.1162L11.0927 14.5373H12.4577L12.7029 15.1127C12.8279 15.4075 13.1255 15.6001 13.4561 15.6001H15.8526C16.3027 15.6001 16.6664 15.2476 16.6664 14.8134V14.7948L16.8208 15.1331C16.9512 15.4172 17.2433 15.601 17.5648 15.601L18.6 15.6028C18.9233 15.6028 19.2136 15.419 19.344 15.134L19.5002 14.7966V14.8161C19.5002 15.2503 19.8639 15.6019 20.314 15.6019H21.5219C21.6872 15.6019 21.8314 15.5415 21.9609 15.4607C22.0895 15.5415 22.2337 15.6019 22.4 15.6019H26.3349C26.4875 15.6019 26.6226 15.5504 26.7428 15.4803C26.865 15.5504 26.9991 15.6019 27.1516 15.6019H28.3311C28.7811 15.6019 29.1448 15.2494 29.1448 14.8152V13.8687H29.5949C29.6968 13.8687 29.7694 13.8713 29.8237 13.8749C29.8291 13.9557 29.8274 14.0516 29.8274 14.1155L29.8255 14.2203L29.83 14.8214C29.8337 15.253 30.1984 15.6019 30.6448 15.6019H31.8335C31.9667 15.6019 32.0869 15.5619 32.1981 15.5069C32.311 15.5628 32.4323 15.6019 32.5664 15.6019H33.7696C34.1646 15.6019 34.477 15.3267 34.5533 14.9679C35.221 15.5105 36.1616 15.6019 36.6852 15.6019H38.0658C38.3946 15.6019 38.6922 15.4066 38.8161 15.1091L39.0559 14.5382H40.4135L40.6624 15.1171C40.7882 15.4092 41.084 15.601 41.4138 15.601H43.8112C44.2613 15.601 44.625 15.2485 44.625 14.8143V14.0622L45.3479 15.221C45.4958 15.4563 45.7595 15.601 46.0461 15.601H47.7141C48.1642 15.601 48.528 15.2485 48.528 14.8143V10.0488C48.528 9.61463 48.1623 9.26213 47.7141 9.26213ZM21.5209 14.8134H20.3131L20.3085 11.0815L18.6 14.8134H17.5648L15.8535 11.0779V14.8134H13.4552L13.0024 13.7506H10.5499L10.0924 14.8134H8.812L10.9219 10.0479H12.6708L14.676 14.5604V10.0479H16.5994L18.1416 13.2809L19.5571 10.0479H21.5209V14.8134ZM26.3341 11.0406H23.5766V11.8993H26.269V12.876H23.5766V13.8278H26.3341V14.8134H22.3991V10.0479H26.3341V11.0406ZM31.0526 12.6025C31.3108 12.6984 31.5312 12.8653 31.6359 13.0038C31.8031 13.2409 31.8316 13.4522 31.8316 13.8776V14.8125H30.643L30.6374 14.2114C30.6374 13.9255 30.666 13.5135 30.4519 13.2835C30.2801 13.1166 30.0175 13.0802 29.5932 13.0802H28.3301V14.8134H27.1507H27.1498V10.0488H29.8595C30.462 10.0488 30.9057 10.0639 31.286 10.277C31.659 10.4901 31.882 10.8009 31.882 11.3328C31.882 12.0919 31.3576 12.4853 31.0526 12.6025ZM33.7707 14.8134H32.5674V10.0479H33.7707V14.8134ZM47.7141 14.8134H46.045L43.8103 11.2369V14.8134H41.4129L40.9537 13.7506H38.5048L38.062 14.8134H36.6824C36.1101 14.8134 35.3872 14.6909 34.9776 14.2869C34.5606 13.882 34.3456 13.3333 34.3456 12.4675C34.3456 11.7607 34.4751 11.1143 34.9767 10.6029C35.356 10.2229 35.9522 10.0479 36.766 10.0479H37.904V11.069H36.788C36.359 11.069 36.1157 11.1303 35.8824 11.3514C35.6811 11.5521 35.5443 11.9312 35.5443 12.4311C35.5443 12.9408 35.649 13.3084 35.8695 13.549C36.0524 13.7381 36.3829 13.795 36.6906 13.795H37.2188L38.8832 10.0479H40.6486L42.6419 14.555V10.0479H44.4376L46.5081 13.367V10.0479H47.7141V14.8134ZM37.1986 11.8566L36.687 13.0101C36.574 13.0101 36.4978 12.9976 36.4555 12.987C36.4161 12.9159 36.3618 12.7588 36.3618 12.432C36.3618 12.1017 36.4445 11.9303 36.4555 11.9152C36.4896 11.8833 36.518 11.8558 36.7945 11.8558L37.1986 11.8566Z" fill="#404553"/>
<path d="M25.1317 20.6417L26.9413 22.5845V18.7638L25.1317 20.6417Z" fill="#404553"/>
<path d="M22.3265 19.237H19.3743V20.1028H21.96V21.0759H19.3743V22.0242H22.2696L23.6152 20.624L22.3265 19.237Z" fill="#404553"/>
</svg>
