<svg width="60" height="34" viewBox="0 0 60 34" fill="none" xmlns="http://www.w3.org/2000/svg">
<rect x="0.5" y="0.5" width="59" height="33" rx="1.76763" fill="white" stroke="#DADCE3"/>
<path fill-rule="evenodd" clip-rule="evenodd" d="M17.2762 22.9994C14.3164 22.9994 12 21.1343 12 18.233C12 14.4709 14.9116 12 18.2414 12C20.8634 12 22.3755 13.4028 23.0029 15.0129L20.8152 15.7462C20.3969 14.6144 19.3674 14.0086 18.1288 14.0086C16.102 14.0086 14.3968 15.7462 14.3968 18.0895C14.3968 19.7474 15.555 20.9908 17.4049 20.9908C18.3218 20.9908 19.3192 20.5126 19.9304 19.7634L21.6999 20.943C20.4613 22.5052 18.6757 22.9994 17.2762 22.9994ZM26.8635 14.9177C27.9091 14.9177 28.8261 15.3641 29.3408 16.1292L29.5499 15.109H31.6089L29.8877 22.8086H27.8287L28.0539 21.8521C27.3944 22.6173 26.6544 22.9999 25.7214 22.9999C23.9681 22.9999 22.7616 21.8521 22.7616 19.8117C22.7616 17.4842 24.2254 14.9177 26.8635 14.9177ZM27.1853 16.7187C25.8501 16.7187 24.901 17.978 24.901 19.3968C24.901 20.4967 25.641 21.1981 26.6223 21.1981C27.3461 21.1981 27.9896 20.7996 28.4078 20.2735L29.003 17.6114C28.6652 17.0853 28.0057 16.7187 27.1853 16.7187ZM35.2926 22.9999C37.416 22.9999 38.6546 21.7724 38.6546 20.3058C38.6546 17.9625 34.6975 18.1697 34.6975 17.2292C34.6975 16.8307 35.0996 16.5118 35.8235 16.5118C36.7726 16.5118 37.7377 17.0379 38.1077 17.5161L39.1694 16.1611C38.4294 15.4119 37.1908 14.9177 35.8717 14.9177C33.7966 14.9177 32.6706 16.1771 32.6706 17.5161C32.6706 19.8276 36.6278 19.5725 36.6278 20.6087C36.6278 21.0391 36.1935 21.4058 35.5018 21.4058C34.3757 21.4058 33.2497 20.7362 32.7832 20.1942L31.6411 21.613C32.5097 22.5217 33.8771 22.9999 35.2926 22.9999ZM46.8907 22.8075L48.065 17.5151C48.0972 17.3556 48.1454 17.0368 48.1454 16.8774C48.1454 15.6818 47.2125 14.9166 45.7164 14.9166C44.5743 14.9166 43.7379 15.5224 43.1266 16.0963L44.0113 12.1748H41.9523L39.5876 22.8075H41.6467L42.7888 17.6266C43.2392 17.1803 43.9148 16.718 44.6065 16.718C45.3626 16.718 45.9417 16.989 45.9417 17.6904C45.9417 17.802 45.9095 18.0092 45.8773 18.1368L44.8478 22.8075H46.8907Z" fill="#404553"/>
</svg>
