<svg width="24" height="24" viewBox="0 0 24 24" fill="none" xmlns="http://www.w3.org/2000/svg">
<path d="M5.44812 12.3353V21H11.9573H18.4665V12.3353L11.9203 6.12511L5.44812 12.3353Z" stroke="#404554" stroke-width="0.856739" stroke-linejoin="round"/>
<path d="M11.9203 6.12511L4.92597 12.8779C4.47664 13.3117 3.7607 13.2991 3.32689 12.8498C2.89307 12.4004 2.90565 11.6845 3.35499 11.2507L11.9008 3L20.6522 11.241C21.1069 11.6692 21.1284 12.3849 20.7002 12.8396C20.272 13.2943 19.5563 13.3158 19.1016 12.8876L11.9203 6.12511Z" stroke="#404554" stroke-width="0.856739" stroke-linejoin="round"/>
<path d="M9.76611 20.7774L9.76611 16.9336C9.76611 15.7439 10.7306 14.7794 11.9203 14.7794V14.7794C13.11 14.7794 14.0745 15.7439 14.0745 16.9336V20.7774" stroke="#404554" stroke-width="0.856739" stroke-linecap="round" stroke-linejoin="round"/>
<path d="M12.8551 12.6005H10.9003" stroke="#404554" stroke-width="0.856739" stroke-linecap="round" stroke-linejoin="round"/>
</svg>
